SplineFontDB: 3.2
FontName: Spiffy_all
FullName: Spiffy all
FamilyName: Spiffy all
Weight: Regular
Copyright: Copyright (c) 2023, Razvii
UComments: "2023-1-6: Created with FontForge (http://fontforge.org)"
Version: 003.000
ItalicAngle: 0
UnderlinePosition: -102
UnderlineWidth: 51
Ascent: 819
Descent: 205
InvalidEm: 0
LayerCount: 2
Layer: 0 0 "Back" 1
Layer: 1 0 "Fore" 0
XUID: [1021 980 -593230808 14091715]
StyleMap: 0x0000
FSType: 0
OS2Version: 0
OS2_WeightWidthSlopeOnly: 0
OS2_UseTypoMetrics: 1
CreationTime: 1673019662
ModificationTime: 1673033592
OS2TypoAscent: 0
OS2TypoAOffset: 1
OS2TypoDescent: 0
OS2TypoDOffset: 1
OS2TypoLinegap: 92
OS2WinAscent: 0
OS2WinAOffset: 1
OS2WinDescent: 0
OS2WinDOffset: 1
HheadAscent: 0
HheadAOffset: 1
HheadDescent: 0
HheadDOffset: 1
OS2Vendor: 'PfEd'
MarkAttachClasses: 1
DEI: 91125
Encoding: ISO8859-1
UnicodeInterp: none
NameList: AGL For New Fonts
DisplaySize: -48
AntiAlias: 1
FitToEm: 0
WinInfo: 38 19 7
BeginPrivate: 0
EndPrivate
BeginChars: 256 62

StartChar: A
Encoding: 65 65 0
Width: 1024
Flags: HW
LayerCount: 2
Fore
SplineSet
428 759 m 0
 455 765 490 766 506 763 c 0
 544 756 634 683 634 660 c 0
 634 604 818 233 891 140 c 0
 967 45 947 -16 807 -108 c 0
 748 -148 715 -146 621 -97 c 0
 576 -73 519 -54 478 -49 c 0
 412 -40 411 -40 371 -81 c 0
 349 -104 309 -134 285 -147 c 0
 243 -168 235 -169 200 -154 c 0
 146 -132 110 -83 110 -34 c 0
 110 -12 104 16 97 30 c 0
 80 61 92 101 133 149 c 0
 171 192 242 393 255 491 c 0
 258 521 265 562 268 583 c 0
 271 604 297 649 325 684 c 0
 368 735 387 751 428 759 c 0
521 648 m 0
 466 709 374 636 361 521 c 0
 349 423 328 346 295 282 c 0
 289 270 285 251 285 241 c 0
 285 204 254 134 226 104 c 0
 200 76 199 73 219 52 c 0
 235 35 237 25 228 6 c 0
 212 -24 212 -65 228 -65 c 0
 256 -65 308 -15 317 20 c 2
 326 57 l 1
 414 54 l 2
 508 49 632 15 681 -20 c 0
 725 -51 739 -48 797 3 c 2
 849 50 l 1
 818 83 l 2
 792 110 645 356 645 372 c 0
 645 374 632 404 617 438 c 0
 601 473 578 528 564 563 c 0
 550 598 530 636 521 648 c 0
429 357 m 0
 436 374 447 389 454 389 c 0
 473 389 569 191 557 179 c 0
 551 174 508 167 461 164 c 0
 395 161 375 163 370 175 c 0
 364 189 380 237 429 357 c 0
EndSplineSet
EndChar

StartChar: B
Encoding: 66 66 1
Width: 1024
Flags: HW
HStem: -151 84<311 508> 435 123<426 479>
LayerCount: 2
Fore
SplineSet
550 735 m 0
 668 750 769 730 816 685 c 0
 845 656 838 597 800 536 c 2
 765 482 l 1
 818 429 l 1
 872 378 l 1
 867 305 l 2
 860 197 815 111 708 3 c 0
 590 -112 514 -150 399 -151 c 0
 307 -152 274 -137 219 -73 c 0
 149 7 143 63 199 115 c 0
 237 150 239 154 227 204 c 0
 221 232 213 287 210 325 c 0
 207 366 195 406 182 421 c 0
 153 458 144 509 161 542 c 0
 169 557 207 607 245 655 c 2
 315 740 l 1
 397 733 l 2
 442 730 512 730 550 735 c 0
743 638 m 0
 716 662 583 671 509 655 c 0
 480 649 432 647 402 650 c 2
 348 656 l 1
 295 588 l 2
 236 511 230 493 264 472 c 0
 283 460 288 446 288 390 c 0
 288 352 295 288 304 247 c 0
 313 206 325 142 330 105 c 2
 338 36 l 1
 295 43 l 2
 240 51 239 31 291 -27 c 0
 328 -67 335 -68 402 -67 c 0
 482 -66 532 -44 618 27 c 0
 716 110 778 200 793 286 c 0
 805 349 785 374 699 414 c 2
 623 448 l 1
 681 509 l 2
 760 593 770 614 743 638 c 0
468 559 m 0
 556 586 625 573 610 535 c 0
 603 519 447 435 423 435 c 0
 418 435 416 460 418 490 c 0
 421 544 423 546 468 559 c 0
434 321 m 0
 444 337 579 332 616 312 c 0
 650 295 651 291 646 240 c 0
 638 166 586 82 530 56 c 0
 463 26 457 33 443 180 c 0
 435 252 432 316 434 321 c 0
567 236 m 0
 567 243 557 249 544 249 c 0
 527 249 520 241 520 221 c 0
 520 205 525 190 531 185 c 0
 543 178 567 214 567 236 c 0
EndSplineSet
EndChar

StartChar: C
Encoding: 67 67 2
Width: 1024
Flags: HW
HStem: -182 419<453 774>
LayerCount: 2
Fore
SplineSet
469 703 m 0
 578 764 642 761 716 694 c 0
 772 647 781 622 781 517 c 0
 781 403 775 386 691 314 c 0
 642 272 576 237 546 237 c 0
 490 237 481 221 511 172 c 0
 527 149 554 154 635 189 c 0
 691 217 753 237 774 237 c 0
 835 237 895 153 879 88 c 0
 853 -14 590 -182 453 -182 c 0
 227 -182 65 156 181 384 c 0
 244 503 381 656 469 703 c 0
656 598 m 0
 607 659 542 636 430 524 c 0
 281 370 229 251 262 130 c 0
 318 -72 448 -117 637 2 c 0
 807 111 819 158 651 72 c 0
 528 9 453 28 409 133 c 0
 362 245 367 324 425 417 c 0
 481 508 530 507 521 414 c 0
 514 349 548 335 611 384 c 0
 665 424 691 556 656 598 c 0
EndSplineSet
EndChar

StartChar: D
Encoding: 68 68 3
Width: 1024
Flags: HW
HStem: -176 87<314 396>
VStem: 800 81<307 414>
LayerCount: 2
Fore
SplineSet
293 728 m 0
 366 741 573 669 710 583 c 0
 821 513 882 438 882 369 c 0
 882 244 669 -7 456 -135 c 0
 399 -170 378 -176 320 -176 c 0
 262 -175 248 -170 229 -148 c 0
 202 -115 202 -81 226 -33 c 0
 241 -3 240 19 231 93 c 0
 224 142 215 186 212 192 c 0
 209 198 206 254 206 318 c 0
 206 410 202 436 187 449 c 0
 159 472 135 538 144 567 c 0
 157 607 265 723 293 728 c 0
425 621 m 0
 387 634 346 645 334 645 c 0
 308 645 230 553 238 532 c 0
 241 524 256 517 270 517 c 0
 318 517 326 502 306 455 c 0
 282 397 284 330 314 141 c 0
 334 13 336 -26 326 -43 c 0
 305 -76 308 -88 338 -88 c 0
 388 -88 561 39 676 162 c 0
 726 214 800 332 800 356 c 0
 800 440 646 549 425 621 c 0
421 453 m 0
 428 480 433 483 461 476 c 0
 506 466 603 407 636 372 c 0
 688 316 665 242 558 130 c 0
 491 59 468 49 458 84 c 0
 434 167 409 408 421 453 c 0
562 271 m 0
 577 301 577 306 551 329 c 0
 516 362 510 352 518 282 c 0
 525 223 535 220 562 271 c 0
EndSplineSet
EndChar

StartChar: E
Encoding: 69 69 4
Width: 1024
Flags: HW
HStem: -182 116<299 424> 326 205<504 685>
VStem: 422 512<377 579>
LayerCount: 2
Fore
SplineSet
382 698 m 0
 424 710 533 722 626 724 c 0
 819 726 934 672 934 579 c 0
 934 525 850 424 803 424 c 0
 766 424 815 281 873 216 c 0
 903 183 910 151 901 109 c 0
 889 60 839 26 650 -65 c 0
 520 -130 384 -182 347 -182 c 0
 266 -182 173 -95 154 -2 c 0
 145 33 123 100 107 144 c 0
 81 216 84 235 121 307 c 0
 151 361 161 412 152 454 c 0
 140 508 152 531 224 596 c 0
 271 638 340 684 382 698 c 0
794 586 m 0
 727 630 484 613 377 559 c 0
 282 508 275 500 270 393 c 0
 265 332 254 270 240 254 c 0
 224 235 226 188 247 102 c 0
 287 -47 298 -65 347 -65 c 0
 419 -65 797 128 771 154 c 0
 757 168 710 154 633 114 c 0
 475 26 431 30 410 135 c 0
 391 237 417 261 552 261 c 0
 613 261 661 275 680 298 c 0
 710 333 699 335 566 326 c 0
 424 317 422 316 422 377 c 0
 422 482 468 517 619 531 c 0
 805 547 838 558 794 586 c 0
EndSplineSet
EndChar

StartChar: F
Encoding: 70 70 5
Width: 1024
Flags: HW
HStem: 191 114<503 665>
VStem: 397 105<132 189>
LayerCount: 2
Fore
SplineSet
509 773 m 0
 679 801 720 798 806 763 c 0
 876 733 888 716 888 649 c 0
 888 588 874 559 830 531 c 0
 774 494 774 491 809 433 c 0
 842 386 843 364 820 317 c 0
 792 252 669 191 567 191 c 2
 502 191 l 1
 518 58 l 2
 541 -126 497 -191 343 -200 c 0
 238 -207 234 -205 199 -121 c 0
 176 -67 159 77 150 282 c 2
 136 600 l 1
 220 687 l 2
 274 741 322 768 350 761 c 0
 376 756 446 761 509 773 c 0
767 659 m 0
 730 682 660 682 504 654 c 0
 441 642 376 638 360 645 c 0
 344 650 311 626 283 593 c 0
 229 523 224 433 266 144 c 0
 294 -35 301 -54 350 -61 c 0
 401 -70 404 -65 397 100 c 0
 388 289 399 303 564 305 c 0
 608 307 666 321 692 340 c 0
 734 373 735 375 695 391 c 0
 672 400 590 400 513 393 c 2
 376 377 l 1
 376 456 l 2
 376 526 386 536 467 559 c 0
 590 596 634 594 618 552 c 0
 597 501 625 507 716 579 c 0
 777 623 790 645 767 659 c 0
EndSplineSet
EndChar

StartChar: G
Encoding: 71 71 6
Width: 1024
Flags: HW
HStem: -175 133<626 721>
VStem: 730 195<121 370>
LayerCount: 2
Fore
SplineSet
484 801 m 0
 533 822 526 824 614 782 c 0
 702 740 740 651 698 586 c 0
 677 551 683 543 746 531 c 0
 834 512 926 431 926 370 c 0
 926 344 903 288 877 244 c 0
 833 172 831 153 854 72 c 0
 889 -42 872 -96 793 -147 c 0
 751 -175 707 -184 637 -175 c 0
 586 -168 502 -172 453 -186 c 0
 381 -207 351 -205 286 -175 c 0
 144 -108 60 147 116 347 c 0
 160 510 347 738 484 801 c 0
586 659 m 0
 570 687 507 684 456 656 c 0
 435 642 374 568 323 491 c 0
 239 363 228 332 228 209 c 0
 228 130 244 42 265 0 c 0
 300 -65 309 -70 404 -58 c 0
 462 -53 528 -30 551 -9 c 0
 602 38 623 37 623 -7 c 0
 623 -28 644 -42 677 -42 c 0
 728 -42 730 -35 730 121 c 0
 728 256 734 289 774 317 c 0
 881 396 675 440 535 368 c 0
 407 301 372 200 495 256 c 0
 604 305 628 293 609 198 c 0
 583 37 435 -25 374 98 c 0
 311 221 356 493 437 493 c 0
 486 493 607 626 586 659 c 0
EndSplineSet
EndChar

StartChar: H
Encoding: 72 72 7
Width: 1024
Flags: HW
VStem: 396 209<378 559> 699 116<457 702>
LayerCount: 2
Fore
SplineSet
552 745 m 0
 615 812 638 822 692 808 c 0
 797 782 815 752 815 612 c 0
 815 528 829 461 852 428 c 0
 878 391 885 354 871 312 c 0
 862 277 855 198 855 135 c 0
 857 -14 824 -100 752 -158 c 0
 680 -214 589 -219 531 -165 c 0
 491 -130 484 -130 410 -170 c 0
 336 -210 326 -212 270 -175 c 0
 237 -152 206 -111 201 -81 c 0
 175 31 158 165 149 354 c 0
 137 568 152 603 280 684 c 0
 329 717 350 720 408 694 c 0
 473 666 482 668 552 745 c 0
699 568 m 0
 699 642 689 703 680 703 c 0
 631 703 606 635 606 500 c 2
 606 354 l 1
 531 363 l 2
 489 368 440 373 426 375 c 0
 407 377 396 410 396 454 c 0
 396 494 385 544 373 563 c 0
 338 619 271 561 259 468 c 0
 250 373 300 -61 326 -77 c 0
 333 -82 366 -70 394 -49 c 0
 441 -19 445 5 438 119 c 2
 431 249 l 1
 515 256 l 1
 599 263 l 1
 613 140 l 2
 622 73 622 -7 615 -37 c 0
 594 -109 664 -104 713 -30 c 0
 743 17 747 61 738 168 c 0
 729 249 731 312 745 319 c 0
 759 328 755 354 734 384 c 0
 713 414 699 487 699 568 c 0
EndSplineSet
EndChar

StartChar: I
Encoding: 73 73 8
Width: 1024
Flags: HW
VStem: 578 109<70 608>
LayerCount: 2
Fore
SplineSet
455 745 m 0
 536 808 564 807 627 756 c 0
 671 719 675 682 687 342 c 0
 701 -54 699 -63 585 -142 c 0
 504 -198 434 -190 380 -123 c 0
 338 -72 333 -26 331 279 c 0
 329 642 332 650 455 745 c 0
564 675 m 0
 559 694 518 673 485 638 c 0
 429 577 426 -35 480 -56 c 0
 499 -65 531 -56 552 -40 c 0
 585 -14 587 37 578 330 c 0
 571 516 564 670 564 675 c 0
EndSplineSet
EndChar

StartChar: J
Encoding: 74 74 9
Width: 1024
Flags: HW
HStem: -37 109<162 383>
LayerCount: 2
Fore
SplineSet
472 666 m 0
 628 836 731 805 787 577 c 0
 820 447 868 344 931 277 c 0
 987 216 987 140 933 91 c 0
 910 70 780 -5 640 -77 c 0
 431 -184 370 -205 268 -205 c 0
 117 -205 35 -137 54 -30 c 0
 73 70 121 107 200 86 c 0
 235 74 286 70 312 72 c 0
 379 79 603 190 603 216 c 0
 603 230 587 270 568 307 c 0
 545 351 521 370 491 363 c 0
 433 347 337 451 356 512 c 0
 365 538 416 608 472 666 c 0
675 559 m 0
 659 613 633 656 617 656 c 0
 580 656 451 496 472 477 c 0
 479 468 505 482 531 503 c 0
 575 543 577 538 668 354 c 2
 761 165 l 1
 710 133 l 2
 561 35 342 -46 254 -37 c 0
 191 -32 161 -37 161 -58 c 0
 161 -98 242 -119 330 -100 c 0
 388 -86 745 87 866 161 c 0
 878 168 866 195 840 223 c 0
 779 288 708 436 675 559 c 0
EndSplineSet
EndChar

StartChar: K
Encoding: 75 75 10
Width: 1024
Flags: HW
VStem: 390 133<430 508>
LayerCount: 2
Fore
SplineSet
271 719 m 0
 325 780 406 775 476 712 c 0
 518 675 522 675 562 710 c 0
 660 798 799 731 799 596 c 0
 799 542 813 509 846 493 c 0
 904 463 904 398 846 233 c 0
 820 161 797 51 795 -7 c 0
 793 -91 781 -123 739 -149 c 0
 658 -205 534 -216 499 -172 c 0
 476 -146 446 -140 383 -149 c 0
 257 -170 206 -103 162 144 c 0
 108 454 129 563 271 719 c 0
390 510 m 0
 402 654 378 681 315 593 c 0
 243 491 236 435 264 244 c 0
 304 -7 322 -52 378 -19 c 0
 413 -3 427 35 432 114 c 0
 439 216 443 224 529 254 c 0
 580 270 624 282 629 277 c 0
 634 272 620 224 601 168 c 0
 547 19 555 -46 620 -37 c 0
 662 -32 673 -12 685 86 c 0
 694 151 718 242 739 293 c 0
 760 342 771 391 764 400 c 0
 757 412 716 410 669 396 c 0
 622 384 580 379 573 386 c 0
 566 393 587 442 622 493 c 0
 685 586 697 633 664 633 c 0
 638 633 559 542 522 470 c 0
 508 437 478 391 459 365 c 0
 408 295 376 361 390 510 c 0
EndSplineSet
EndChar

StartChar: L
Encoding: 76 76 11
Width: 1024
Flags: HW
HStem: -88 116<618 788>
VStem: 67 128<-2 532> 358 133<219 677>
LayerCount: 2
Fore
SplineSet
213 770 m 0
 311 828 372 831 442 782 c 0
 491 749 495 726 490 600 c 0
 488 523 488 404 490 337 c 2
 493 219 l 1
 663 230 l 2
 810 239 837 238 895 191 c 0
 956 142 977 65 940 14 c 0
 907 -35 807 -88 749 -88 c 0
 716 -88 590 -114 469 -144 c 0
 278 -191 242 -196 188 -168 c 0
 97 -124 72 -28 67 240 c 0
 62 661 69 682 213 770 c 0
358 454 m 0
 365 656 360 680 325 680 c 0
 302 680 260 657 234 631 c 0
 187 584 186 564 195 282 c 0
 200 96 213 -28 232 -47 c 0
 253 -68 299 -60 432 -23 c 0
 527 5 642 28 684 28 c 0
 728 28 784 42 807 61 c 0
 849 91 847 93 777 109 c 0
 737 116 684 119 663 112 c 0
 640 105 567 93 500 86 c 2
 379 72 l 1
 365 151 l 2
 356 193 353 331 358 454 c 0
EndSplineSet
EndChar

StartChar: M
Encoding: 77 77 12
Width: 1024
Flags: HW
VStem: 586 100<-25 71> 600 86<283 420>
LayerCount: 2
Fore
SplineSet
593 763 m 0x80
 647 830 770 841 824 780 c 0
 847 752 868 640 887 447 c 0
 903 286 924 112 933 61 c 0
 956 -60 935 -100 819 -158 c 0
 742 -198 720 -200 680 -177 c 0
 633 -149 586 -30 586 58 c 0
 586 88 556 77 437 -7 c 0
 272 -121 214 -135 149 -70 c 0
 114 -35 104 14 102 205 c 0
 100 331 93 463 86 496 c 0
 74 545 89 570 156 631 c 0
 203 671 263 703 296 703 c 0
 352 703 447 607 447 549 c 0
 447 484 487 519 517 612 c 0
 536 666 567 733 593 763 c 0x80
761 593 m 0
 749 686 735 726 712 726 c 0
 679 726 661 692 540 396 c 0
 510 322 477 261 468 261 c 0
 461 261 421 333 386 424 c 0
 316 589 272 624 214 552 c 0
 184 515 204 5 237 5 c 0
 300 5 330 40 330 114 c 2
 330 195 l 1
 372 144 l 1
 414 93 l 1
 489 156 l 2
 540 200 574 258 600 349 c 0
 621 423 647 491 656 500 c 0
 665 509 680 391 687 235 c 0x40
 694 79 710 -58 719 -67 c 0
 731 -79 761 -73 787 -54 c 0
 834 -21 833 -14 805 219 c 0
 789 352 768 519 761 593 c 0
EndSplineSet
EndChar

StartChar: N
Encoding: 78 78 13
Width: 1024
Flags: HW
LayerCount: 2
Fore
SplineSet
442 735 m 0
 535 786 597 780 681 710 c 0
 802 608 842 488 833 258 c 0
 828 151 812 38 798 5 c 0
 756 -83 623 -167 546 -151 c 0
 506 -144 463 -151 437 -172 c 0
 376 -216 286 -214 232 -165 c 0
 197 -132 190 -90 190 147 c 2
 190 421 l 1
 269 498 l 2
 311 540 353 603 362 638 c 0
 369 673 407 716 442 735 c 0
642 584 m 0
 579 661 542 673 500 631 c 0
 479 610 488 579 535 512 c 0
 579 445 597 382 604 277 c 2
 611 133 l 1
 511 291 l 2
 457 377 399 447 383 447 c 0
 367 447 337 422 316 389 c 0
 286 340 281 296 295 121 c 0
 304 7 321 -88 330 -88 c 0
 393 -88 423 -53 423 19 c 0
 423 117 446 119 500 28 c 0
 549 -51 583 -58 653 0 c 0
 695 33 706 72 718 216 c 0
 734 428 721 489 642 584 c 0
EndSplineSet
EndChar

StartChar: O
Encoding: 79 79 14
Width: 1024
Flags: HW
LayerCount: 2
Fore
SplineSet
405 770 m 0
 589 821 791 738 910 566 c 0
 1054 354 907 -11 628 -137 c 0
 449 -218 270 -172 130 -2 c 0
 67 72 58 105 58 219 c 0
 58 293 74 397 95 451 c 0
 146 584 300 740 405 770 c 0
654 619 m 0
 472 705 310 624 219 398 c 0
 152 230 160 154 265 49 c 0
 337 -25 372 -42 442 -42 c 0
 572 -42 719 54 777 175 c 0
 870 368 824 538 654 619 c 0
409 556 m 0
 442 593 556 596 619 563 c 0
 642 549 679 507 698 470 c 0
 770 330 710 111 591 88 c 0
 468 65 346 146 323 272 c 0
 311 344 353 489 409 556 c 0
EndSplineSet
EndChar

StartChar: P
Encoding: 80 80 15
Width: 1024
Flags: HW
VStem: 470 118<442 566> 721 81<509 668>
LayerCount: 2
Fore
SplineSet
511 748 m 0
 556 765 683 764 721 744 c 0
 765 721 802 667 802 623 c 0
 802 521 746 393 644 265 c 2
 580 186 l 1
 588 55 l 2
 597 -95 589 -118 511 -158 c 0
 446 -191 376 -190 345 -154 c 0
 319 -125 296 -2 267 249 c 0
 261 304 247 374 235 408 c 0
 219 457 218 475 230 499 c 0
 238 515 244 538 244 550 c 0
 244 578 334 712 368 734 c 0
 385 746 408 750 438 744 c 0
 462 741 496 741 511 748 c 0
699 668 m 0
 668 684 562 682 503 663 c 0
 476 654 442 650 427 653 c 0
 406 656 394 646 365 602 c 0
 327 541 309 468 325 438 c 0
 330 426 344 350 353 266 c 0
 370 132 387 17 402 -63 c 0
 408 -94 451 -97 487 -67 c 0
 510 -48 510 -41 502 86 c 2
 493 220 l 1
 547 279 l 2
 659 404 721 519 721 610 c 0
 721 644 715 659 699 668 c 0
484 562 m 0
 496 569 523 575 543 575 c 0
 573 575 582 569 588 547 c 0
 591 531 589 500 582 479 c 0
 561 418 498 316 488 326 c 0
 483 332 475 384 470 443 c 0
 463 538 464 550 484 562 c 0
EndSplineSet
EndChar

StartChar: Q
Encoding: 81 81 16
Width: 1024
Flags: HW
LayerCount: 2
Fore
SplineSet
438 759 m 0
 531 792 629 777 701 721 c 0
 885 584 948 326 834 179 c 2
 778 105 l 1
 834 51 l 2
 864 23 888 -23 888 -51 c 0
 883 -121 801 -205 736 -205 c 0
 652 -205 527 -144 492 -88 c 0
 476 -60 418 -19 364 7 c 0
 231 63 122 216 134 321 c 0
 141 363 150 410 159 424 c 0
 166 438 180 477 185 512 c 0
 201 596 326 722 438 759 c 0
669 612 m 0
 608 663 545 675 457 652 c 0
 343 622 227 447 322 447 c 0
 341 447 371 480 392 517 c 0
 429 591 472 603 546 563 c 0
 637 514 690 323 636 237 c 0
 610 197 611 200 557 314 c 0
 513 412 497 419 441 356 c 0
 408 321 406 300 427 263 c 0
 464 191 404 198 334 272 c 0
 285 323 280 339 306 379 c 0
 334 423 331 423 287 400 c 0
 215 360 229 268 320 177 c 0
 364 133 420 98 448 98 c 0
 478 98 518 67 548 16 c 0
 604 -68 715 -112 757 -70 c 0
 776 -51 764 -23 720 28 c 0
 646 119 644 144 718 214 c 0
 813 305 788 507 669 612 c 0
EndSplineSet
EndChar

StartChar: R
Encoding: 82 82 17
Width: 1024
Flags: HW
HStem: 226 81<629 697>
VStem: 416 83<21 62>
LayerCount: 2
Fore
SplineSet
435 746 m 0
 511 765 603 757 666 726 c 0
 728 697 761 634 751 568 c 0
 742 514 693 415 655 374 c 0
 626 341 618 307 641 307 c 0
 679 307 839 230 865 200 c 0
 906 152 905 83 864 45 c 0
 806 -9 773 -10 635 28 c 0
 566 47 508 63 505 63 c 0
 502 63 499 51 499 36 c 0
 499 -5 469 -40 406 -71 c 0
 328 -111 262 -111 236 -70 c 0
 212 -33 177 126 161 277 c 0
 155 340 144 412 136 438 c 0
 126 475 126 489 142 524 c 0
 152 546 161 570 161 578 c 0
 161 623 308 713 435 746 c 0
588 674 m 0
 555 683 526 691 523 690 c 0
 458 680 306 617 264 583 c 0
 234 559 203 472 217 455 c 0
 224 447 234 399 237 348 c 0
 244 268 253 205 286 19 c 0
 295 -35 326 -31 416 35 c 0
 418 37 414 64 406 97 c 0
 384 191 378 190 620 116 c 0
 756 74 786 73 813 104 c 0
 836 132 807 161 723 194 c 0
 679 211 639 226 636 226 c 0
 622 226 476 294 476 301 c 0
 476 304 509 340 550 381 c 0
 657 486 703 590 662 639 c 0
 654 648 621 665 588 674 c 0
409 591 m 0
 501 632 589 600 573 531 c 0
 556 464 491 384 430 358 c 0
 406 348 386 346 379 353 c 0
 365 367 354 507 364 545 c 0
 369 564 385 581 409 591 c 0
476 505 m 0
 485 522 485 528 472 528 c 0
 452 528 441 517 441 497 c 0
 441 474 462 478 476 505 c 0
EndSplineSet
EndChar

StartChar: S
Encoding: 83 83 18
Width: 1024
Flags: HW
HStem: 400 116<470 630>
LayerCount: 2
Fore
SplineSet
468 728 m 0
 542 751 638 770 682 770 c 0
 829 772 891 651 810 528 c 0
 775 474 775 470 810 470 c 0
 873 470 957 402 987 330 c 0
 1013 269 1007 249 956 161 c 0
 886 40 744 -91 621 -154 c 0
 458 -238 205 -200 105 -79 c 0
 58 -25 32 119 58 184 c 0
 72 224 70 260 44 307 c 0
 7 379 14 422 86 524 c 0
 135 594 259 661 468 728 c 0
731 640 m 0
 731 668 654 656 486 600 c 0
 258 526 205 496 170 433 c 0
 126 349 159 331 431 291 c 0
 696 251 750 223 710 149 c 0
 638 14 219 23 219 158 c 0
 219 177 207 186 195 179 c 0
 155 153 169 31 216 -16 c 0
 270 -70 403 -100 489 -79 c 0
 661 -35 907 222 856 303 c 0
 828 345 775 360 528 400 c 0
 435 416 358 436 358 445 c 0
 358 466 519 517 584 517 c 0
 626 517 731 605 731 640 c 0
EndSplineSet
EndChar

StartChar: T
Encoding: 84 84 19
Width: 1024
Flags: HW
VStem: 896 116<620 675>
LayerCount: 2
Fore
SplineSet
631 756 m 0
 745 772 858 789 884 791 c 0
 947 796 1012 731 1012 661 c 0
 1012 591 868 447 796 445 c 0
 733 443 640 428 598 412 c 0
 572 403 570 356 584 191 c 0
 598 7 594 -25 559 -65 c 0
 508 -123 435 -124 365 -70 c 0
 316 -33 291 39 235 286 c 0
 223 337 212 344 156 335 c 0
 77 323 12 379 12 456 c 0
 12 535 93 626 193 659 c 0
 240 675 302 700 330 719 c 0
 358 738 391 747 403 740 c 0
 415 733 517 740 631 756 c 0
896 661 m 0
 896 684 896 684 579 633 c 0
 321 593 152 533 133 475 c 0
 126 454 146 449 216 461 c 2
 312 475 l 1
 351 284 l 2
 374 177 412 70 438 42 c 0
 480 -7 479 -2 463 191 c 0
 456 300 447 415 445 445 c 0
 443 499 453 505 628 535 c 0
 800 565 896 610 896 661 c 0
EndSplineSet
EndChar

StartChar: U
Encoding: 85 85 20
Width: 1024
Flags: HW
VStem: 391 212<262 568> 733 116<26 510>
LayerCount: 2
Fore
SplineSet
628 749 m 0
 726 807 824 810 854 754 c 0
 868 726 870 628 858 491 c 0
 849 370 844 252 849 226 c 0
 868 114 861 5 833 -30 c 0
 786 -86 688 -130 630 -121 c 0
 602 -116 542 -135 495 -161 c 0
 381 -228 319 -198 235 -37 c 0
 181 68 170 124 163 319 c 0
 154 549 153 552 218 619 c 0
 320 721 386 738 463 682 c 0
 517 642 528 640 540 668 c 0
 547 687 586 723 628 749 c 0
737 540 m 0
 749 610 756 671 754 673 c 0
 752 675 723 665 693 649 c 0
 626 614 604 551 602 365 c 0
 600 228 537 74 486 74 c 0
 449 74 391 304 391 451 c 0
 391 593 375 612 314 545 c 0
 258 484 263 246 321 81 c 0
 347 9 376 -60 388 -72 c 0
 402 -86 451 -51 516 16 c 0
 618 121 623 123 623 65 c 0
 623 2 656 -11 714 26 c 0
 740 42 745 86 733 230 c 0
 724 330 725 470 737 540 c 0
EndSplineSet
EndChar

StartChar: V
Encoding: 86 86 21
Width: 1024
Flags: HW
LayerCount: 2
Fore
SplineSet
689 784 m 0
 773 831 873 829 896 780 c 0
 929 715 909 614 848 542 c 0
 797 481 713 235 680 51 c 0
 666 -40 617 -107 524 -168 c 0
 438 -224 380 -182 315 -19 c 0
 287 51 229 179 187 265 c 0
 103 433 91 531 145 631 c 0
 182 703 236 735 308 728 c 0
 373 719 410 684 452 589 c 0
 475 533 491 517 498 540 c 0
 524 614 633 754 689 784 c 0
775 652 m 0
 824 717 787 719 717 654 c 0
 650 591 557 395 538 279 c 0
 529 230 514 191 505 191 c 0
 489 191 366 454 333 559 c 0
 310 631 257 621 238 542 c 0
 226 488 252 414 347 207 c 0
 461 -40 473 -58 510 -28 c 0
 531 -7 566 88 587 186 c 0
 629 365 703 552 775 652 c 0
EndSplineSet
EndChar

StartChar: W
Encoding: 87 87 22
Width: 1024
Flags: HW
VStem: 272 91<268 526>
LayerCount: 2
Fore
SplineSet
458 726 m 0
 542 810 675 780 826 647 c 0
 1035 463 1029 17 817 -123 c 0
 729 -181 625 -172 558 -105 c 2
 500 -49 l 1
 435 -116 l 2
 363 -188 263 -202 193 -151 c 0
 149 -118 79 137 51 365 c 0
 37 467 44 509 84 593 c 0
 161 754 287 780 375 652 c 0
 405 610 412 607 412 640 c 0
 412 661 432 700 458 726 c 0
691 605 m 0
 612 659 563 671 542 638 c 0
 537 629 573 554 624 470 c 0
 689 363 714 293 714 226 c 2
 714 135 l 1
 612 277 l 2
 554 354 493 423 477 428 c 0
 435 442 365 347 363 268 c 0
 363 233 353 181 344 158 c 0
 325 107 272 377 272 526 c 0
 272 573 263 610 249 610 c 0
 212 610 179 524 179 424 c 0
 179 315 244 -21 270 -49 c 0
 310 -89 368 -31 405 88 c 0
 426 158 449 214 456 214 c 0
 463 214 509 156 558 86 c 0
 607 14 665 -42 686 -42 c 0
 791 -40 854 79 854 268 c 0
 854 415 798 531 691 605 c 0
EndSplineSet
EndChar

StartChar: X
Encoding: 88 88 23
Width: 1024
Flags: HW
LayerCount: 2
Fore
SplineSet
620 768 m 0
 685 801 699 801 753 773 c 0
 814 738 816 575 755 542 c 0
 732 530 695 478 674 424 c 0
 639 331 639 329 690 310 c 0
 804 266 844 135 772 42 c 0
 698 -53 643 -73 564 -33 c 0
 494 0 495 0 495 -65 c 0
 495 -181 353 -247 281 -163 c 0
 220 -96 215 -16 262 119 c 0
 309 247 309 247 262 296 c 0
 197 363 202 472 274 549 c 0
 332 612 399 626 441 584 c 0
 460 565 481 585 518 652 c 0
 548 703 592 756 620 768 c 0
704 659 m 0
 704 671 691 680 672 680 c 0
 656 680 607 617 567 540 c 0
 525 463 486 400 481 400 c 0
 474 400 448 423 427 451 c 0
 401 481 371 495 348 486 c 0
 292 465 299 400 362 321 c 2
 418 254 l 1
 374 140 l 2
 327 14 320 -79 355 -100 c 0
 381 -116 392 -93 411 28 c 0
 437 172 460 188 541 109 c 0
 599 53 620 46 653 65 c 0
 704 98 721 198 674 186 c 0
 655 181 614 211 581 251 c 2
 520 323 l 1
 590 472 l 2
 630 553 671 626 683 628 c 0
 695 633 704 647 704 659 c 0
EndSplineSet
EndChar

StartChar: Y
Encoding: 89 89 24
Width: 1024
Flags: HW
HStem: 703 116<683 767>
LayerCount: 2
Fore
SplineSet
655 791 m 0
 681 805 718 819 739 819 c 0
 795 819 860 738 844 684 c 0
 835 658 792 463 748 247 c 0
 692 -32 657 -154 629 -175 c 0
 578 -212 429 -214 392 -177 c 0
 357 -142 355 42 390 65 c 0
 406 74 392 102 355 142 c 0
 288 212 178 438 178 505 c 0
 180 600 327 717 413 691 c 0
 441 682 476 643 492 603 c 2
 522 531 l 1
 548 621 l 2
 578 733 594 756 655 791 c 0
727 666 m 0
 736 689 730 703 709 703 c 0
 686 703 658 642 625 535 c 0
 541 256 517 247 436 461 c 0
 389 580 352 602 308 535 c 0
 280 488 320 359 394 254 c 0
 429 203 452 191 492 200 c 0
 543 214 543 209 520 109 c 0
 506 51 489 5 480 5 c 0
 471 5 469 -21 476 -54 c 0
 481 -89 501 -112 527 -112 c 0
 576 -112 594 -45 664 358 c 0
 692 507 720 645 727 666 c 0
EndSplineSet
EndChar

StartChar: Z
Encoding: 90 90 25
Width: 1024
Flags: HW
HStem: -7 133<653 872>
LayerCount: 2
Fore
SplineSet
560 773 m 0
 686 794 747 782 805 731 c 0
 863 677 854 610 763 470 c 0
 719 400 681 335 681 326 c 0
 681 314 723 307 774 307 c 0
 914 307 984 251 984 144 c 0
 984 28 938 -7 777 -7 c 0
 675 -7 607 -26 463 -93 c 0
 272 -186 218 -195 146 -158 c 0
 55 -109 67 -26 193 172 c 0
 272 298 297 354 269 342 c 0
 164 295 74 335 44 440 c 0
 32 480 48 514 113 586 c 0
 201 681 318 731 560 773 c 0
728 647 m 0
 728 666 549 650 414 617 c 0
 281 587 141 491 176 456 c 0
 183 447 260 468 344 503 c 0
 498 564 565 577 565 547 c 0
 565 535 481 398 379 237 c 0
 277 76 204 -58 218 -63 c 0
 232 -68 293 -45 351 -12 c 0
 500 67 684 124 798 126 c 0
 875 126 886 132 865 158 c 0
 830 200 726 200 565 158 c 0
 495 139 435 128 430 130 c 0
 428 135 493 249 577 386 c 0
 661 523 728 642 728 647 c 0
EndSplineSet
EndChar

StartChar: zero
Encoding: 48 48 26
Width: 1024
Flags: HW
HStem: 330 256<535 634> 628 74<440 667>
LayerCount: 2
Fore
SplineSet
669 726 m 0
 718 759 743 754 806 712 c 0
 846 684 857 659 848 612 c 0
 841 579 846 533 860 510 c 0
 930 380 846 97 706 -5 c 0
 583 -98 485 -116 341 -81 c 0
 220 -48 213 -44 173 65 c 0
 59 368 245 703 529 703 c 0
 587 703 650 714 669 726 c 0
750 610 m 0
 764 657 720 675 683 640 c 0
 674 631 623 626 569 628 c 0
 471 635 320 568 320 517 c 0
 320 505 299 473 273 447 c 0
 247 421 224 377 224 349 c 0
 222 319 217 272 215 244 c 0
 213 214 225 163 241 130 c 0
 260 97 273 56 273 37 c 0
 273 2 455 -30 536 -9 c 0
 624 12 717 98 764 200 c 0
 818 316 820 405 771 496 c 0
 752 533 743 587 750 610 c 0
469 554 m 0
 495 573 527 586 543 586 c 0
 608 586 597 535 506 421 c 0
 452 354 395 270 376 233 c 0
 322 128 294 154 301 303 c 0
 308 431 311 435 385 461 c 0
 427 473 452 494 443 503 c 0
 434 512 446 535 469 554 c 0
571 384 m 0
 662 503 680 512 701 456 c 0
 738 358 695 166 618 105 c 0
 569 63 455 46 415 72 c 0
 378 95 424 189 571 384 c 0
629 275 m 0
 634 305 637 330 632 330 c 0
 616 330 511 156 520 147 c 0
 539 126 617 219 629 275 c 0
EndSplineSet
EndChar

StartChar: one
Encoding: 49 49 27
Width: 1024
Flags: HW
LayerCount: 2
Fore
SplineSet
424 770 m 0
 475 789 524 782 571 745 c 0
 587 733 596 661 591 552 c 0
 586 459 592 345 601 303 c 0
 615 231 622 226 706 233 c 0
 801 242 882 191 882 121 c 0
 882 47 773 -26 654 -33 c 0
 472 -45 398 -65 324 -126 c 0
 224 -212 151 -195 142 -86 c 0
 135 -2 179 56 312 133 c 0
 377 173 340 303 259 312 c 0
 208 317 196 333 189 389 c 0
 182 475 347 742 424 770 c 0
517 465 m 0
 501 747 478 764 359 575 c 0
 231 377 226 333 338 412 c 0
 387 445 389 442 401 347 c 0
 410 293 422 217 431 175 c 0
 445 110 437 98 363 63 c 0
 277 23 191 -58 212 -77 c 0
 219 -84 272 -61 333 -28 c 0
 407 14 492 38 594 47 c 0
 738 59 808 93 778 142 c 0
 771 156 722 161 664 154 c 0
 538 135 533 146 517 465 c 0
EndSplineSet
EndChar

StartChar: two
Encoding: 50 50 28
Width: 1024
Flags: HW
VStem: 140 93<449 532> 791 93<186 232>
LayerCount: 2
Fore
SplineSet
344 726 m 0
 439 791 468 799 559 787 c 0
 615 778 678 759 694 740 c 0
 741 693 733 542 677 414 c 2
 628 303 l 1
 689 317 l 2
 780 340 884 291 884 226 c 0
 884 152 845 128 638 74 c 0
 538 48 436 7 410 -16 c 0
 345 -77 240 -100 198 -65 c 0
 149 -23 153 84 209 133 c 0
 263 182 381 377 365 391 c 0
 360 398 328 389 293 375 c 0
 242 352 226 354 186 389 c 0
 160 412 140 446 140 465 c 0
 140 530 235 654 344 726 c 0
647 619 m 0
 640 691 577 723 475 707 c 0
 410 698 233 535 233 486 c 0
 233 419 291 442 370 540 c 0
 465 661 512 661 512 545 c 0
 512 457 374 188 272 79 c 0
 193 -7 254 -26 368 51 c 0
 424 88 528 130 600 144 c 0
 784 184 791 186 791 216 c 0
 791 244 714 239 542 202 c 2
 468 186 l 1
 561 368 l 2
 619 484 652 577 647 619 c 0
EndSplineSet
EndChar

StartChar: three
Encoding: 51 51 29
Width: 1024
Flags: HW
LayerCount: 2
Fore
SplineSet
406 740 m 0
 534 801 593 808 686 773 c 0
 751 747 756 715 709 573 c 0
 697 533 707 519 765 493 c 0
 914 432 888 279 697 93 c 0
 504 -98 345 -131 215 -12 c 0
 152 44 145 149 199 193 c 0
 229 219 248 217 313 182 c 0
 397 135 441 147 520 235 c 0
 581 300 553 321 462 279 c 0
 422 258 369 249 343 256 c 0
 296 268 251 349 274 386 c 0
 281 398 266 422 243 438 c 0
 189 478 192 575 246 638 c 0
 272 664 343 710 406 740 c 0
651 645 m 0
 672 701 670 703 572 703 c 0
 498 703 446 684 376 633 c 0
 322 593 278 547 278 528 c 0
 278 474 313 486 399 563 c 0
 441 603 483 633 495 633 c 0
 542 633 442 437 381 414 c 0
 362 407 348 386 348 365 c 0
 348 328 395 318 430 351 c 0
 472 388 597 398 639 368 c 0
 681 338 679 333 630 254 c 0
 537 100 360 25 283 102 c 0
 236 149 223 100 267 51 c 0
 351 -42 504 3 653 161 c 0
 807 319 821 412 700 438 c 0
 549 473 550 468 592 531 c 0
 611 561 639 612 651 645 c 0
EndSplineSet
EndChar

StartChar: four
Encoding: 52 52 30
Width: 1024
Flags: HW
LayerCount: 2
Fore
SplineSet
635 773 m 0
 684 827 738 831 796 789 c 0
 833 761 833 738 810 505 c 0
 770 112 744 12 677 -42 c 0
 605 -98 570 -101 521 -54 c 0
 495 -26 489 12 501 98 c 0
 513 205 510 214 466 214 c 0
 440 214 392 205 359 191 c 0
 315 175 289 179 249 212 c 2
 198 254 l 1
 251 449 l 2
 323 712 429 816 552 749 c 0
 585 733 605 738 635 773 c 0
754 687 m 0
 761 706 757 728 743 735 c 0
 706 758 624 654 624 584 c 0
 624 551 617 489 610 449 c 0
 596 384 586 377 505 377 c 2
 417 377 l 1
 463 510 l 2
 519 673 519 680 461 680 c 0
 410 680 396 654 335 442 c 0
 291 293 294 270 345 277 c 0
 364 279 431 289 494 298 c 2
 608 312 l 1
 591 156 l 2
 579 35 582 2 605 9 c 0
 661 28 696 142 717 398 c 0
 731 538 747 668 754 687 c 0
EndSplineSet
EndChar

StartChar: five
Encoding: 53 53 31
Width: 1024
Flags: HW
HStem: 330 65<368 446>
LayerCount: 2
Fore
SplineSet
558 745 m 0
 767 768 854 751 863 684 c 0
 875 610 833 571 726 552 c 2
 635 535 l 1
 693 465 l 2
 763 381 765 352 702 219 c 0
 637 89 495 -19 381 -19 c 0
 139 -19 88 247 263 582 c 0
 326 703 358 722 558 745 c 0
788 659 m 0
 802 682 633 682 484 659 c 0
 407 647 383 629 339 552 c 0
 262 417 269 403 409 396 c 0
 518 389 530 384 537 328 c 0
 546 244 461 140 384 149 c 0
 328 156 309 177 272 272 c 0
 256 312 251 307 244 244 c 0
 228 86 342 12 477 91 c 0
 568 145 658 270 658 344 c 0
 658 400 582 470 519 470 c 0
 500 470 470 479 451 491 c 0
 390 531 462 580 623 610 c 0
 707 626 781 647 788 659 c 0
449 298 m 0
 449 317 428 330 402 330 c 0
 358 330 337 265 372 230 c 0
 393 209 449 258 449 298 c 0
EndSplineSet
EndChar

StartChar: six
Encoding: 54 54 32
Width: 1024
Flags: HW
LayerCount: 2
Fore
SplineSet
516 745 m 0
 718 845 842 678 660 552 c 2
 572 493 l 1
 658 493 l 2
 730 493 751 481 791 414 c 0
 854 314 851 263 786 165 c 0
 714 58 572 -17 400 -33 c 2
 258 -49 l 1
 223 35 l 2
 118 286 255 617 516 745 c 0
665 682 m 0
 630 736 497 666 381 533 c 0
 288 426 241 230 281 109 c 0
 307 30 311 28 404 42 c 0
 665 84 814 249 712 386 c 0
 670 442 560 424 451 340 c 0
 402 303 374 293 374 312 c 0
 376 379 486 530 579 593 c 0
 633 630 672 670 665 682 c 0
481 261 m 0
 569 359 597 365 639 300 c 0
 674 246 551 121 463 121 c 0
 377 121 381 149 481 261 c 0
EndSplineSet
EndChar

StartChar: seven
Encoding: 55 55 33
Width: 1024
Flags: HW
HStem: 682 72<279 607>
LayerCount: 2
Fore
SplineSet
587 770 m 0
 734 807 796 800 822 742 c 0
 841 698 831 668 764 554 c 0
 713 470 668 352 645 240 c 0
 624 142 603 49 596 33 c 0
 584 -4 497 -37 441 -23 c 0
 362 -2 350 72 399 256 c 0
 441 421 441 426 399 412 c 0
 327 389 273 419 231 505 c 0
 147 682 203 763 401 754 c 0
 459 752 543 758 587 770 c 0
745 710 m 0
 754 729 736 729 657 703 c 0
 624 694 529 684 443 682 c 0
 357 680 280 670 273 656 c 0
 247 616 329 493 380 493 c 0
 420 493 427 505 415 547 c 0
 403 596 412 603 517 624 c 0
 582 638 634 643 634 638 c 0
 634 631 612 594 589 554 c 0
 542 480 447 168 447 91 c 0
 447 63 461 51 487 56 c 0
 515 61 534 110 557 226 c 0
 576 317 622 456 664 540 c 0
 706 624 743 698 745 710 c 0
EndSplineSet
EndChar

StartChar: eight
Encoding: 56 56 34
Width: 1024
Flags: HW
LayerCount: 2
Fore
SplineSet
472 770 m 0
 626 814 797 756 797 663 c 0
 797 644 760 596 716 556 c 0
 672 516 634 472 634 456 c 0
 634 442 702 400 783 363 c 0
 1037 254 1005 174 651 37 c 0
 411 -54 283 -62 216 5 c 0
 160 61 157 117 206 233 c 2
 241 319 l 1
 160 384 l 2
 51 472 48 558 146 642 c 0
 186 675 257 712 304 726 c 0
 351 738 428 758 472 770 c 0
695 677 m 0
 672 714 500 703 332 652 c 0
 251 626 146 549 146 512 c 0
 146 500 190 463 246 428 c 2
 346 365 l 1
 304 272 l 2
 197 30 276 -19 593 100 c 0
 907 219 906 216 697 314 c 0
 518 398 518 398 544 463 c 0
 560 498 601 556 641 591 c 0
 678 624 702 663 695 677 c 0
383 586 m 0
 425 595 462 605 467 607 c 0
 486 614 467 542 439 505 c 0
 409 463 405 463 344 503 c 0
 272 550 276 560 383 586 c 0
425 216 m 0
 476 316 481 317 644 247 c 0
 709 221 711 216 669 200 c 0
 643 191 588 170 544 154 c 0
 502 135 446 121 423 121 c 0
 379 121 378 123 425 216 c 0
EndSplineSet
EndChar

StartChar: nine
Encoding: 57 57 35
Width: 1024
Flags: HW
VStem: 437 91<127 191> 628 93<-64 273>
LayerCount: 2
Fore
SplineSet
523 791 m 0
 644 831 791 780 791 696 c 0
 791 668 775 563 756 463 c 0
 737 363 721 198 721 98 c 0
 721 -65 717 -91 670 -121 c 0
 607 -165 526 -170 493 -128 c 0
 481 -114 462 -34 453 47 c 2
 437 191 l 1
 358 191 l 2
 304 191 272 205 256 235 c 0
 221 302 227 509 267 586 c 0
 307 665 423 756 523 791 c 0
695 705 m 0
 609 759 451 699 351 573 c 0
 311 522 302 484 307 391 c 0
 314 279 318 272 372 279 c 0
 402 281 451 307 479 333 c 2
 530 379 l 1
 528 172 l 2
 528 -49 539 -93 593 -72 c 0
 616 -65 628 -26 628 37 c 0
 628 149 689 579 712 642 c 0
 721 668 716 691 695 705 c 0
456 589 m 0
 477 612 516 633 542 633 c 0
 579 633 584 622 572 573 c 0
 553 501 447 354 412 354 c 0
 377 354 409 538 456 589 c 0
EndSplineSet
EndChar

StartChar: a
Encoding: 97 97 36
Width: 1024
Flags: HW
LayerCount: 2
Fore
SplineSet
428 759 m 0
 455 765 490 766 506 763 c 0
 544 756 634 683 634 660 c 0
 634 604 818 233 891 140 c 0
 967 45 947 -16 807 -108 c 0
 748 -148 715 -146 621 -97 c 0
 576 -73 519 -54 478 -49 c 0
 412 -40 411 -40 371 -81 c 0
 349 -104 309 -134 285 -147 c 0
 243 -168 235 -169 200 -154 c 0
 146 -132 110 -83 110 -34 c 0
 110 -12 104 16 97 30 c 0
 80 61 92 101 133 149 c 0
 171 192 242 393 255 491 c 0
 258 521 265 562 268 583 c 0
 271 604 297 649 325 684 c 0
 368 735 387 751 428 759 c 0
521 648 m 0
 466 709 374 636 361 521 c 0
 349 423 328 346 295 282 c 0
 289 270 285 251 285 241 c 0
 285 204 254 134 226 104 c 0
 200 76 199 73 219 52 c 0
 235 35 237 25 228 6 c 0
 212 -24 212 -65 228 -65 c 0
 256 -65 308 -15 317 20 c 2
 326 57 l 1
 414 54 l 2
 508 49 632 15 681 -20 c 0
 725 -51 739 -48 797 3 c 2
 849 50 l 1
 818 83 l 2
 792 110 645 356 645 372 c 0
 645 374 632 404 617 438 c 0
 601 473 578 528 564 563 c 0
 550 598 530 636 521 648 c 0
429 357 m 0
 436 374 447 389 454 389 c 0
 473 389 569 191 557 179 c 0
 551 174 508 167 461 164 c 0
 395 161 375 163 370 175 c 0
 364 189 380 237 429 357 c 0
EndSplineSet
EndChar

StartChar: b
Encoding: 98 98 37
Width: 1024
Flags: HW
HStem: -151 84<311 508> 435 123<426 479>
LayerCount: 2
Fore
SplineSet
550 735 m 0
 668 750 769 730 816 685 c 0
 845 656 838 597 800 536 c 2
 765 482 l 1
 818 429 l 1
 872 378 l 1
 867 305 l 2
 860 197 815 111 708 3 c 0
 590 -112 514 -150 399 -151 c 0
 307 -152 274 -137 219 -73 c 0
 149 7 143 63 199 115 c 0
 237 150 239 154 227 204 c 0
 221 232 213 287 210 325 c 0
 207 366 195 406 182 421 c 0
 153 458 144 509 161 542 c 0
 169 557 207 607 245 655 c 2
 315 740 l 1
 397 733 l 2
 442 730 512 730 550 735 c 0
743 638 m 0
 716 662 583 671 509 655 c 0
 480 649 432 647 402 650 c 2
 348 656 l 1
 295 588 l 2
 236 511 230 493 264 472 c 0
 283 460 288 446 288 390 c 0
 288 352 295 288 304 247 c 0
 313 206 325 142 330 105 c 2
 338 36 l 1
 295 43 l 2
 240 51 239 31 291 -27 c 0
 328 -67 335 -68 402 -67 c 0
 482 -66 532 -44 618 27 c 0
 716 110 778 200 793 286 c 0
 805 349 785 374 699 414 c 2
 623 448 l 1
 681 509 l 2
 760 593 770 614 743 638 c 0
468 559 m 0
 556 586 625 573 610 535 c 0
 603 519 447 435 423 435 c 0
 418 435 416 460 418 490 c 0
 421 544 423 546 468 559 c 0
434 321 m 0
 444 337 579 332 616 312 c 0
 650 295 651 291 646 240 c 0
 638 166 586 82 530 56 c 0
 463 26 457 33 443 180 c 0
 435 252 432 316 434 321 c 0
567 236 m 0
 567 243 557 249 544 249 c 0
 527 249 520 241 520 221 c 0
 520 205 525 190 531 185 c 0
 543 178 567 214 567 236 c 0
EndSplineSet
EndChar

StartChar: c
Encoding: 99 99 38
Width: 1024
Flags: HW
HStem: -182 419<453 774>
LayerCount: 2
Fore
SplineSet
469 703 m 0
 578 764 642 761 716 694 c 0
 772 647 781 622 781 517 c 0
 781 403 775 386 691 314 c 0
 642 272 576 237 546 237 c 0
 490 237 481 221 511 172 c 0
 527 149 554 154 635 189 c 0
 691 217 753 237 774 237 c 0
 835 237 895 153 879 88 c 0
 853 -14 590 -182 453 -182 c 0
 227 -182 65 156 181 384 c 0
 244 503 381 656 469 703 c 0
656 598 m 0
 607 659 542 636 430 524 c 0
 281 370 229 251 262 130 c 0
 318 -72 448 -117 637 2 c 0
 807 111 819 158 651 72 c 0
 528 9 453 28 409 133 c 0
 362 245 367 324 425 417 c 0
 481 508 530 507 521 414 c 0
 514 349 548 335 611 384 c 0
 665 424 691 556 656 598 c 0
EndSplineSet
EndChar

StartChar: d
Encoding: 100 100 39
Width: 1024
Flags: HW
HStem: -176 87<314 396>
VStem: 800 81<307 414>
LayerCount: 2
Fore
SplineSet
293 728 m 0
 366 741 573 669 710 583 c 0
 821 513 882 438 882 369 c 0
 882 244 669 -7 456 -135 c 0
 399 -170 378 -176 320 -176 c 0
 262 -175 248 -170 229 -148 c 0
 202 -115 202 -81 226 -33 c 0
 241 -3 240 19 231 93 c 0
 224 142 215 186 212 192 c 0
 209 198 206 254 206 318 c 0
 206 410 202 436 187 449 c 0
 159 472 135 538 144 567 c 0
 157 607 265 723 293 728 c 0
425 621 m 0
 387 634 346 645 334 645 c 0
 308 645 230 553 238 532 c 0
 241 524 256 517 270 517 c 0
 318 517 326 502 306 455 c 0
 282 397 284 330 314 141 c 0
 334 13 336 -26 326 -43 c 0
 305 -76 308 -88 338 -88 c 0
 388 -88 561 39 676 162 c 0
 726 214 800 332 800 356 c 0
 800 440 646 549 425 621 c 0
421 453 m 0
 428 480 433 483 461 476 c 0
 506 466 603 407 636 372 c 0
 688 316 665 242 558 130 c 0
 491 59 468 49 458 84 c 0
 434 167 409 408 421 453 c 0
562 271 m 0
 577 301 577 306 551 329 c 0
 516 362 510 352 518 282 c 0
 525 223 535 220 562 271 c 0
EndSplineSet
EndChar

StartChar: e
Encoding: 101 101 40
Width: 1024
Flags: HW
HStem: -182 116<299 424> 326 205<504 685>
VStem: 422 512<377 579>
LayerCount: 2
Fore
SplineSet
382 698 m 0
 424 710 533 722 626 724 c 0
 819 726 934 672 934 579 c 0
 934 525 850 424 803 424 c 0
 766 424 815 281 873 216 c 0
 903 183 910 151 901 109 c 0
 889 60 839 26 650 -65 c 0
 520 -130 384 -182 347 -182 c 0
 266 -182 173 -95 154 -2 c 0
 145 33 123 100 107 144 c 0
 81 216 84 235 121 307 c 0
 151 361 161 412 152 454 c 0
 140 508 152 531 224 596 c 0
 271 638 340 684 382 698 c 0
794 586 m 0
 727 630 484 613 377 559 c 0
 282 508 275 500 270 393 c 0
 265 332 254 270 240 254 c 0
 224 235 226 188 247 102 c 0
 287 -47 298 -65 347 -65 c 0
 419 -65 797 128 771 154 c 0
 757 168 710 154 633 114 c 0
 475 26 431 30 410 135 c 0
 391 237 417 261 552 261 c 0
 613 261 661 275 680 298 c 0
 710 333 699 335 566 326 c 0
 424 317 422 316 422 377 c 0
 422 482 468 517 619 531 c 0
 805 547 838 558 794 586 c 0
EndSplineSet
EndChar

StartChar: f
Encoding: 102 102 41
Width: 1024
Flags: HW
HStem: 191 114<503 665>
VStem: 397 105<132 189>
LayerCount: 2
Fore
SplineSet
509 773 m 0
 679 801 720 798 806 763 c 0
 876 733 888 716 888 649 c 0
 888 588 874 559 830 531 c 0
 774 494 774 491 809 433 c 0
 842 386 843 364 820 317 c 0
 792 252 669 191 567 191 c 2
 502 191 l 1
 518 58 l 2
 541 -126 497 -191 343 -200 c 0
 238 -207 234 -205 199 -121 c 0
 176 -67 159 77 150 282 c 2
 136 600 l 1
 220 687 l 2
 274 741 322 768 350 761 c 0
 376 756 446 761 509 773 c 0
767 659 m 0
 730 682 660 682 504 654 c 0
 441 642 376 638 360 645 c 0
 344 650 311 626 283 593 c 0
 229 523 224 433 266 144 c 0
 294 -35 301 -54 350 -61 c 0
 401 -70 404 -65 397 100 c 0
 388 289 399 303 564 305 c 0
 608 307 666 321 692 340 c 0
 734 373 735 375 695 391 c 0
 672 400 590 400 513 393 c 2
 376 377 l 1
 376 456 l 2
 376 526 386 536 467 559 c 0
 590 596 634 594 618 552 c 0
 597 501 625 507 716 579 c 0
 777 623 790 645 767 659 c 0
EndSplineSet
EndChar

StartChar: g
Encoding: 103 103 42
Width: 1024
Flags: HW
HStem: -175 133<626 721>
VStem: 730 195<121 370>
LayerCount: 2
Fore
SplineSet
484 801 m 0
 533 822 526 824 614 782 c 0
 702 740 740 651 698 586 c 0
 677 551 683 543 746 531 c 0
 834 512 926 431 926 370 c 0
 926 344 903 288 877 244 c 0
 833 172 831 153 854 72 c 0
 889 -42 872 -96 793 -147 c 0
 751 -175 707 -184 637 -175 c 0
 586 -168 502 -172 453 -186 c 0
 381 -207 351 -205 286 -175 c 0
 144 -108 60 147 116 347 c 0
 160 510 347 738 484 801 c 0
586 659 m 0
 570 687 507 684 456 656 c 0
 435 642 374 568 323 491 c 0
 239 363 228 332 228 209 c 0
 228 130 244 42 265 0 c 0
 300 -65 309 -70 404 -58 c 0
 462 -53 528 -30 551 -9 c 0
 602 38 623 37 623 -7 c 0
 623 -28 644 -42 677 -42 c 0
 728 -42 730 -35 730 121 c 0
 728 256 734 289 774 317 c 0
 881 396 675 440 535 368 c 0
 407 301 372 200 495 256 c 0
 604 305 628 293 609 198 c 0
 583 37 435 -25 374 98 c 0
 311 221 356 493 437 493 c 0
 486 493 607 626 586 659 c 0
EndSplineSet
EndChar

StartChar: h
Encoding: 104 104 43
Width: 1024
Flags: HW
VStem: 396 209<378 559> 699 116<457 702>
LayerCount: 2
Fore
SplineSet
552 745 m 0
 615 812 638 822 692 808 c 0
 797 782 815 752 815 612 c 0
 815 528 829 461 852 428 c 0
 878 391 885 354 871 312 c 0
 862 277 855 198 855 135 c 0
 857 -14 824 -100 752 -158 c 0
 680 -214 589 -219 531 -165 c 0
 491 -130 484 -130 410 -170 c 0
 336 -210 326 -212 270 -175 c 0
 237 -152 206 -111 201 -81 c 0
 175 31 158 165 149 354 c 0
 137 568 152 603 280 684 c 0
 329 717 350 720 408 694 c 0
 473 666 482 668 552 745 c 0
699 568 m 0
 699 642 689 703 680 703 c 0
 631 703 606 635 606 500 c 2
 606 354 l 1
 531 363 l 2
 489 368 440 373 426 375 c 0
 407 377 396 410 396 454 c 0
 396 494 385 544 373 563 c 0
 338 619 271 561 259 468 c 0
 250 373 300 -61 326 -77 c 0
 333 -82 366 -70 394 -49 c 0
 441 -19 445 5 438 119 c 2
 431 249 l 1
 515 256 l 1
 599 263 l 1
 613 140 l 2
 622 73 622 -7 615 -37 c 0
 594 -109 664 -104 713 -30 c 0
 743 17 747 61 738 168 c 0
 729 249 731 312 745 319 c 0
 759 328 755 354 734 384 c 0
 713 414 699 487 699 568 c 0
EndSplineSet
EndChar

StartChar: i
Encoding: 105 105 44
Width: 1024
Flags: HW
VStem: 578 109<70 608>
LayerCount: 2
Fore
SplineSet
455 745 m 0
 536 808 564 807 627 756 c 0
 671 719 675 682 687 342 c 0
 701 -54 699 -63 585 -142 c 0
 504 -198 434 -190 380 -123 c 0
 338 -72 333 -26 331 279 c 0
 329 642 332 650 455 745 c 0
564 675 m 0
 559 694 518 673 485 638 c 0
 429 577 426 -35 480 -56 c 0
 499 -65 531 -56 552 -40 c 0
 585 -14 587 37 578 330 c 0
 571 516 564 670 564 675 c 0
EndSplineSet
EndChar

StartChar: j
Encoding: 106 106 45
Width: 1024
Flags: HW
HStem: -37 109<162 383>
LayerCount: 2
Fore
SplineSet
472 666 m 0
 628 836 731 805 787 577 c 0
 820 447 868 344 931 277 c 0
 987 216 987 140 933 91 c 0
 910 70 780 -5 640 -77 c 0
 431 -184 370 -205 268 -205 c 0
 117 -205 35 -137 54 -30 c 0
 73 70 121 107 200 86 c 0
 235 74 286 70 312 72 c 0
 379 79 603 190 603 216 c 0
 603 230 587 270 568 307 c 0
 545 351 521 370 491 363 c 0
 433 347 337 451 356 512 c 0
 365 538 416 608 472 666 c 0
675 559 m 0
 659 613 633 656 617 656 c 0
 580 656 451 496 472 477 c 0
 479 468 505 482 531 503 c 0
 575 543 577 538 668 354 c 2
 761 165 l 1
 710 133 l 2
 561 35 342 -46 254 -37 c 0
 191 -32 161 -37 161 -58 c 0
 161 -98 242 -119 330 -100 c 0
 388 -86 745 87 866 161 c 0
 878 168 866 195 840 223 c 0
 779 288 708 436 675 559 c 0
EndSplineSet
EndChar

StartChar: k
Encoding: 107 107 46
Width: 1024
Flags: HW
VStem: 390 133<430 508>
LayerCount: 2
Fore
SplineSet
271 719 m 0
 325 780 406 775 476 712 c 0
 518 675 522 675 562 710 c 0
 660 798 799 731 799 596 c 0
 799 542 813 509 846 493 c 0
 904 463 904 398 846 233 c 0
 820 161 797 51 795 -7 c 0
 793 -91 781 -123 739 -149 c 0
 658 -205 534 -216 499 -172 c 0
 476 -146 446 -140 383 -149 c 0
 257 -170 206 -103 162 144 c 0
 108 454 129 563 271 719 c 0
390 510 m 0
 402 654 378 681 315 593 c 0
 243 491 236 435 264 244 c 0
 304 -7 322 -52 378 -19 c 0
 413 -3 427 35 432 114 c 0
 439 216 443 224 529 254 c 0
 580 270 624 282 629 277 c 0
 634 272 620 224 601 168 c 0
 547 19 555 -46 620 -37 c 0
 662 -32 673 -12 685 86 c 0
 694 151 718 242 739 293 c 0
 760 342 771 391 764 400 c 0
 757 412 716 410 669 396 c 0
 622 384 580 379 573 386 c 0
 566 393 587 442 622 493 c 0
 685 586 697 633 664 633 c 0
 638 633 559 542 522 470 c 0
 508 437 478 391 459 365 c 0
 408 295 376 361 390 510 c 0
EndSplineSet
EndChar

StartChar: l
Encoding: 108 108 47
Width: 1024
Flags: HW
HStem: -88 116<618 788>
VStem: 67 128<-2 532> 358 133<219 677>
LayerCount: 2
Fore
SplineSet
213 770 m 0
 311 828 372 831 442 782 c 0
 491 749 495 726 490 600 c 0
 488 523 488 404 490 337 c 2
 493 219 l 1
 663 230 l 2
 810 239 837 238 895 191 c 0
 956 142 977 65 940 14 c 0
 907 -35 807 -88 749 -88 c 0
 716 -88 590 -114 469 -144 c 0
 278 -191 242 -196 188 -168 c 0
 97 -124 72 -28 67 240 c 0
 62 661 69 682 213 770 c 0
358 454 m 0
 365 656 360 680 325 680 c 0
 302 680 260 657 234 631 c 0
 187 584 186 564 195 282 c 0
 200 96 213 -28 232 -47 c 0
 253 -68 299 -60 432 -23 c 0
 527 5 642 28 684 28 c 0
 728 28 784 42 807 61 c 0
 849 91 847 93 777 109 c 0
 737 116 684 119 663 112 c 0
 640 105 567 93 500 86 c 2
 379 72 l 1
 365 151 l 2
 356 193 353 331 358 454 c 0
EndSplineSet
EndChar

StartChar: m
Encoding: 109 109 48
Width: 1024
Flags: HW
VStem: 586 100<-25 71> 600 86<283 420>
LayerCount: 2
Fore
SplineSet
593 763 m 0x80
 647 830 770 841 824 780 c 0
 847 752 868 640 887 447 c 0
 903 286 924 112 933 61 c 0
 956 -60 935 -100 819 -158 c 0
 742 -198 720 -200 680 -177 c 0
 633 -149 586 -30 586 58 c 0
 586 88 556 77 437 -7 c 0
 272 -121 214 -135 149 -70 c 0
 114 -35 104 14 102 205 c 0
 100 331 93 463 86 496 c 0
 74 545 89 570 156 631 c 0
 203 671 263 703 296 703 c 0
 352 703 447 607 447 549 c 0
 447 484 487 519 517 612 c 0
 536 666 567 733 593 763 c 0x80
761 593 m 0
 749 686 735 726 712 726 c 0
 679 726 661 692 540 396 c 0
 510 322 477 261 468 261 c 0
 461 261 421 333 386 424 c 0
 316 589 272 624 214 552 c 0
 184 515 204 5 237 5 c 0
 300 5 330 40 330 114 c 2
 330 195 l 1
 372 144 l 1
 414 93 l 1
 489 156 l 2
 540 200 574 258 600 349 c 0
 621 423 647 491 656 500 c 0
 665 509 680 391 687 235 c 0x40
 694 79 710 -58 719 -67 c 0
 731 -79 761 -73 787 -54 c 0
 834 -21 833 -14 805 219 c 0
 789 352 768 519 761 593 c 0
EndSplineSet
EndChar

StartChar: n
Encoding: 110 110 49
Width: 1024
Flags: HW
LayerCount: 2
Fore
SplineSet
442 735 m 0
 535 786 597 780 681 710 c 0
 802 608 842 488 833 258 c 0
 828 151 812 38 798 5 c 0
 756 -83 623 -167 546 -151 c 0
 506 -144 463 -151 437 -172 c 0
 376 -216 286 -214 232 -165 c 0
 197 -132 190 -90 190 147 c 2
 190 421 l 1
 269 498 l 2
 311 540 353 603 362 638 c 0
 369 673 407 716 442 735 c 0
642 584 m 0
 579 661 542 673 500 631 c 0
 479 610 488 579 535 512 c 0
 579 445 597 382 604 277 c 2
 611 133 l 1
 511 291 l 2
 457 377 399 447 383 447 c 0
 367 447 337 422 316 389 c 0
 286 340 281 296 295 121 c 0
 304 7 321 -88 330 -88 c 0
 393 -88 423 -53 423 19 c 0
 423 117 446 119 500 28 c 0
 549 -51 583 -58 653 0 c 0
 695 33 706 72 718 216 c 0
 734 428 721 489 642 584 c 0
EndSplineSet
EndChar

StartChar: o
Encoding: 111 111 50
Width: 1024
Flags: HW
LayerCount: 2
Fore
SplineSet
405 770 m 0
 589 821 791 738 910 566 c 0
 1054 354 907 -11 628 -137 c 0
 449 -218 270 -172 130 -2 c 0
 67 72 58 105 58 219 c 0
 58 293 74 397 95 451 c 0
 146 584 300 740 405 770 c 0
654 619 m 0
 472 705 310 624 219 398 c 0
 152 230 160 154 265 49 c 0
 337 -25 372 -42 442 -42 c 0
 572 -42 719 54 777 175 c 0
 870 368 824 538 654 619 c 0
409 556 m 0
 442 593 556 596 619 563 c 0
 642 549 679 507 698 470 c 0
 770 330 710 111 591 88 c 0
 468 65 346 146 323 272 c 0
 311 344 353 489 409 556 c 0
EndSplineSet
EndChar

StartChar: p
Encoding: 112 112 51
Width: 1024
Flags: HW
VStem: 470 118<442 566> 721 81<509 668>
LayerCount: 2
Fore
SplineSet
511 748 m 0
 556 765 683 764 721 744 c 0
 765 721 802 667 802 623 c 0
 802 521 746 393 644 265 c 2
 580 186 l 1
 588 55 l 2
 597 -95 589 -118 511 -158 c 0
 446 -191 376 -190 345 -154 c 0
 319 -125 296 -2 267 249 c 0
 261 304 247 374 235 408 c 0
 219 457 218 475 230 499 c 0
 238 515 244 538 244 550 c 0
 244 578 334 712 368 734 c 0
 385 746 408 750 438 744 c 0
 462 741 496 741 511 748 c 0
699 668 m 0
 668 684 562 682 503 663 c 0
 476 654 442 650 427 653 c 0
 406 656 394 646 365 602 c 0
 327 541 309 468 325 438 c 0
 330 426 344 350 353 266 c 0
 370 132 387 17 402 -63 c 0
 408 -94 451 -97 487 -67 c 0
 510 -48 510 -41 502 86 c 2
 493 220 l 1
 547 279 l 2
 659 404 721 519 721 610 c 0
 721 644 715 659 699 668 c 0
484 562 m 0
 496 569 523 575 543 575 c 0
 573 575 582 569 588 547 c 0
 591 531 589 500 582 479 c 0
 561 418 498 316 488 326 c 0
 483 332 475 384 470 443 c 0
 463 538 464 550 484 562 c 0
EndSplineSet
EndChar

StartChar: q
Encoding: 113 113 52
Width: 1024
Flags: HW
LayerCount: 2
Fore
SplineSet
438 759 m 0
 531 792 629 777 701 721 c 0
 885 584 948 326 834 179 c 2
 778 105 l 1
 834 51 l 2
 864 23 888 -23 888 -51 c 0
 883 -121 801 -205 736 -205 c 0
 652 -205 527 -144 492 -88 c 0
 476 -60 418 -19 364 7 c 0
 231 63 122 216 134 321 c 0
 141 363 150 410 159 424 c 0
 166 438 180 477 185 512 c 0
 201 596 326 722 438 759 c 0
669 612 m 0
 608 663 545 675 457 652 c 0
 343 622 227 447 322 447 c 0
 341 447 371 480 392 517 c 0
 429 591 472 603 546 563 c 0
 637 514 690 323 636 237 c 0
 610 197 611 200 557 314 c 0
 513 412 497 419 441 356 c 0
 408 321 406 300 427 263 c 0
 464 191 404 198 334 272 c 0
 285 323 280 339 306 379 c 0
 334 423 331 423 287 400 c 0
 215 360 229 268 320 177 c 0
 364 133 420 98 448 98 c 0
 478 98 518 67 548 16 c 0
 604 -68 715 -112 757 -70 c 0
 776 -51 764 -23 720 28 c 0
 646 119 644 144 718 214 c 0
 813 305 788 507 669 612 c 0
EndSplineSet
EndChar

StartChar: r
Encoding: 114 114 53
Width: 1024
Flags: HW
HStem: 226 81<629 697>
VStem: 416 83<21 62>
LayerCount: 2
Fore
SplineSet
435 746 m 0
 511 765 603 757 666 726 c 0
 728 697 761 634 751 568 c 0
 742 514 693 415 655 374 c 0
 626 341 618 307 641 307 c 0
 679 307 839 230 865 200 c 0
 906 152 905 83 864 45 c 0
 806 -9 773 -10 635 28 c 0
 566 47 508 63 505 63 c 0
 502 63 499 51 499 36 c 0
 499 -5 469 -40 406 -71 c 0
 328 -111 262 -111 236 -70 c 0
 212 -33 177 126 161 277 c 0
 155 340 144 412 136 438 c 0
 126 475 126 489 142 524 c 0
 152 546 161 570 161 578 c 0
 161 623 308 713 435 746 c 0
588 674 m 0
 555 683 526 691 523 690 c 0
 458 680 306 617 264 583 c 0
 234 559 203 472 217 455 c 0
 224 447 234 399 237 348 c 0
 244 268 253 205 286 19 c 0
 295 -35 326 -31 416 35 c 0
 418 37 414 64 406 97 c 0
 384 191 378 190 620 116 c 0
 756 74 786 73 813 104 c 0
 836 132 807 161 723 194 c 0
 679 211 639 226 636 226 c 0
 622 226 476 294 476 301 c 0
 476 304 509 340 550 381 c 0
 657 486 703 590 662 639 c 0
 654 648 621 665 588 674 c 0
409 591 m 0
 501 632 589 600 573 531 c 0
 556 464 491 384 430 358 c 0
 406 348 386 346 379 353 c 0
 365 367 354 507 364 545 c 0
 369 564 385 581 409 591 c 0
476 505 m 0
 485 522 485 528 472 528 c 0
 452 528 441 517 441 497 c 0
 441 474 462 478 476 505 c 0
EndSplineSet
EndChar

StartChar: s
Encoding: 115 115 54
Width: 1024
Flags: HW
HStem: 400 116<470 630>
LayerCount: 2
Fore
SplineSet
468 728 m 0
 542 751 638 770 682 770 c 0
 829 772 891 651 810 528 c 0
 775 474 775 470 810 470 c 0
 873 470 957 402 987 330 c 0
 1013 269 1007 249 956 161 c 0
 886 40 744 -91 621 -154 c 0
 458 -238 205 -200 105 -79 c 0
 58 -25 32 119 58 184 c 0
 72 224 70 260 44 307 c 0
 7 379 14 422 86 524 c 0
 135 594 259 661 468 728 c 0
731 640 m 0
 731 668 654 656 486 600 c 0
 258 526 205 496 170 433 c 0
 126 349 159 331 431 291 c 0
 696 251 750 223 710 149 c 0
 638 14 219 23 219 158 c 0
 219 177 207 186 195 179 c 0
 155 153 169 31 216 -16 c 0
 270 -70 403 -100 489 -79 c 0
 661 -35 907 222 856 303 c 0
 828 345 775 360 528 400 c 0
 435 416 358 436 358 445 c 0
 358 466 519 517 584 517 c 0
 626 517 731 605 731 640 c 0
EndSplineSet
EndChar

StartChar: t
Encoding: 116 116 55
Width: 1024
Flags: HW
VStem: 896 116<620 675>
LayerCount: 2
Fore
SplineSet
631 756 m 0
 745 772 858 789 884 791 c 0
 947 796 1012 731 1012 661 c 0
 1012 591 868 447 796 445 c 0
 733 443 640 428 598 412 c 0
 572 403 570 356 584 191 c 0
 598 7 594 -25 559 -65 c 0
 508 -123 435 -124 365 -70 c 0
 316 -33 291 39 235 286 c 0
 223 337 212 344 156 335 c 0
 77 323 12 379 12 456 c 0
 12 535 93 626 193 659 c 0
 240 675 302 700 330 719 c 0
 358 738 391 747 403 740 c 0
 415 733 517 740 631 756 c 0
896 661 m 0
 896 684 896 684 579 633 c 0
 321 593 152 533 133 475 c 0
 126 454 146 449 216 461 c 2
 312 475 l 1
 351 284 l 2
 374 177 412 70 438 42 c 0
 480 -7 479 -2 463 191 c 0
 456 300 447 415 445 445 c 0
 443 499 453 505 628 535 c 0
 800 565 896 610 896 661 c 0
EndSplineSet
EndChar

StartChar: u
Encoding: 117 117 56
Width: 1024
Flags: HW
VStem: 391 212<262 568> 733 116<26 510>
LayerCount: 2
Fore
SplineSet
628 749 m 0
 726 807 824 810 854 754 c 0
 868 726 870 628 858 491 c 0
 849 370 844 252 849 226 c 0
 868 114 861 5 833 -30 c 0
 786 -86 688 -130 630 -121 c 0
 602 -116 542 -135 495 -161 c 0
 381 -228 319 -198 235 -37 c 0
 181 68 170 124 163 319 c 0
 154 549 153 552 218 619 c 0
 320 721 386 738 463 682 c 0
 517 642 528 640 540 668 c 0
 547 687 586 723 628 749 c 0
737 540 m 0
 749 610 756 671 754 673 c 0
 752 675 723 665 693 649 c 0
 626 614 604 551 602 365 c 0
 600 228 537 74 486 74 c 0
 449 74 391 304 391 451 c 0
 391 593 375 612 314 545 c 0
 258 484 263 246 321 81 c 0
 347 9 376 -60 388 -72 c 0
 402 -86 451 -51 516 16 c 0
 618 121 623 123 623 65 c 0
 623 2 656 -11 714 26 c 0
 740 42 745 86 733 230 c 0
 724 330 725 470 737 540 c 0
EndSplineSet
EndChar

StartChar: v
Encoding: 118 118 57
Width: 1024
Flags: HW
LayerCount: 2
Fore
SplineSet
689 784 m 0
 773 831 873 829 896 780 c 0
 929 715 909 614 848 542 c 0
 797 481 713 235 680 51 c 0
 666 -40 617 -107 524 -168 c 0
 438 -224 380 -182 315 -19 c 0
 287 51 229 179 187 265 c 0
 103 433 91 531 145 631 c 0
 182 703 236 735 308 728 c 0
 373 719 410 684 452 589 c 0
 475 533 491 517 498 540 c 0
 524 614 633 754 689 784 c 0
775 652 m 0
 824 717 787 719 717 654 c 0
 650 591 557 395 538 279 c 0
 529 230 514 191 505 191 c 0
 489 191 366 454 333 559 c 0
 310 631 257 621 238 542 c 0
 226 488 252 414 347 207 c 0
 461 -40 473 -58 510 -28 c 0
 531 -7 566 88 587 186 c 0
 629 365 703 552 775 652 c 0
EndSplineSet
EndChar

StartChar: w
Encoding: 119 119 58
Width: 1024
Flags: HW
VStem: 272 91<268 526>
LayerCount: 2
Fore
SplineSet
458 726 m 0
 542 810 675 780 826 647 c 0
 1035 463 1029 17 817 -123 c 0
 729 -181 625 -172 558 -105 c 2
 500 -49 l 1
 435 -116 l 2
 363 -188 263 -202 193 -151 c 0
 149 -118 79 137 51 365 c 0
 37 467 44 509 84 593 c 0
 161 754 287 780 375 652 c 0
 405 610 412 607 412 640 c 0
 412 661 432 700 458 726 c 0
691 605 m 0
 612 659 563 671 542 638 c 0
 537 629 573 554 624 470 c 0
 689 363 714 293 714 226 c 2
 714 135 l 1
 612 277 l 2
 554 354 493 423 477 428 c 0
 435 442 365 347 363 268 c 0
 363 233 353 181 344 158 c 0
 325 107 272 377 272 526 c 0
 272 573 263 610 249 610 c 0
 212 610 179 524 179 424 c 0
 179 315 244 -21 270 -49 c 0
 310 -89 368 -31 405 88 c 0
 426 158 449 214 456 214 c 0
 463 214 509 156 558 86 c 0
 607 14 665 -42 686 -42 c 0
 791 -40 854 79 854 268 c 0
 854 415 798 531 691 605 c 0
EndSplineSet
EndChar

StartChar: x
Encoding: 120 120 59
Width: 1024
Flags: HW
LayerCount: 2
Fore
SplineSet
620 768 m 0
 685 801 699 801 753 773 c 0
 814 738 816 575 755 542 c 0
 732 530 695 478 674 424 c 0
 639 331 639 329 690 310 c 0
 804 266 844 135 772 42 c 0
 698 -53 643 -73 564 -33 c 0
 494 0 495 0 495 -65 c 0
 495 -181 353 -247 281 -163 c 0
 220 -96 215 -16 262 119 c 0
 309 247 309 247 262 296 c 0
 197 363 202 472 274 549 c 0
 332 612 399 626 441 584 c 0
 460 565 481 585 518 652 c 0
 548 703 592 756 620 768 c 0
704 659 m 0
 704 671 691 680 672 680 c 0
 656 680 607 617 567 540 c 0
 525 463 486 400 481 400 c 0
 474 400 448 423 427 451 c 0
 401 481 371 495 348 486 c 0
 292 465 299 400 362 321 c 2
 418 254 l 1
 374 140 l 2
 327 14 320 -79 355 -100 c 0
 381 -116 392 -93 411 28 c 0
 437 172 460 188 541 109 c 0
 599 53 620 46 653 65 c 0
 704 98 721 198 674 186 c 0
 655 181 614 211 581 251 c 2
 520 323 l 1
 590 472 l 2
 630 553 671 626 683 628 c 0
 695 633 704 647 704 659 c 0
EndSplineSet
EndChar

StartChar: y
Encoding: 121 121 60
Width: 1024
Flags: HW
HStem: 703 116<683 767>
LayerCount: 2
Fore
SplineSet
655 791 m 0
 681 805 718 819 739 819 c 0
 795 819 860 738 844 684 c 0
 835 658 792 463 748 247 c 0
 692 -32 657 -154 629 -175 c 0
 578 -212 429 -214 392 -177 c 0
 357 -142 355 42 390 65 c 0
 406 74 392 102 355 142 c 0
 288 212 178 438 178 505 c 0
 180 600 327 717 413 691 c 0
 441 682 476 643 492 603 c 2
 522 531 l 1
 548 621 l 2
 578 733 594 756 655 791 c 0
727 666 m 0
 736 689 730 703 709 703 c 0
 686 703 658 642 625 535 c 0
 541 256 517 247 436 461 c 0
 389 580 352 602 308 535 c 0
 280 488 320 359 394 254 c 0
 429 203 452 191 492 200 c 0
 543 214 543 209 520 109 c 0
 506 51 489 5 480 5 c 0
 471 5 469 -21 476 -54 c 0
 481 -89 501 -112 527 -112 c 0
 576 -112 594 -45 664 358 c 0
 692 507 720 645 727 666 c 0
EndSplineSet
EndChar

StartChar: z
Encoding: 122 122 61
Width: 1024
Flags: HW
HStem: -7 133<653 872>
LayerCount: 2
Fore
SplineSet
560 773 m 0
 686 794 747 782 805 731 c 0
 863 677 854 610 763 470 c 0
 719 400 681 335 681 326 c 0
 681 314 723 307 774 307 c 0
 914 307 984 251 984 144 c 0
 984 28 938 -7 777 -7 c 0
 675 -7 607 -26 463 -93 c 0
 272 -186 218 -195 146 -158 c 0
 55 -109 67 -26 193 172 c 0
 272 298 297 354 269 342 c 0
 164 295 74 335 44 440 c 0
 32 480 48 514 113 586 c 0
 201 681 318 731 560 773 c 0
728 647 m 0
 728 666 549 650 414 617 c 0
 281 587 141 491 176 456 c 0
 183 447 260 468 344 503 c 0
 498 564 565 577 565 547 c 0
 565 535 481 398 379 237 c 0
 277 76 204 -58 218 -63 c 0
 232 -68 293 -45 351 -12 c 0
 500 67 684 124 798 126 c 0
 875 126 886 132 865 158 c 0
 830 200 726 200 565 158 c 0
 495 139 435 128 430 130 c 0
 428 135 493 249 577 386 c 0
 661 523 728 642 728 647 c 0
EndSplineSet
EndChar
